<svg xmlns="http://www.w3.org/2000/svg" xmlns:xlink="http://www.w3.org/1999/xlink" width="325" height="450" viewBox="0 0 325 450">
  <defs>
    <clipPath id="clip-path">
      <rect width="325" height="450" fill="none"/>
    </clipPath>
  </defs>
  <g id="Cuadrícula_de_repetición_4" data-name="Cuadrícula de repetición 4" clip-path="url(#clip-path)">
    <g transform="translate(-204 -2959)">
      <rect id="Rectángulo_20" data-name="Rectángulo 20" width="20" height="20" rx="10" transform="translate(204 2959)" fill="#f6f6f6"/>
    </g>
    <g transform="translate(-177 -2959)">
      <rect id="Rectángulo_20-2" data-name="Rectángulo 20" width="20" height="20" rx="10" transform="translate(204 2959)" fill="#f6f6f6"/>
    </g>
    <g transform="translate(-150 -2959)">
      <rect id="Rectángulo_20-3" data-name="Rectángulo 20" width="20" height="20" rx="10" transform="translate(204 2959)" fill="#f6f6f6"/>
    </g>
    <g transform="translate(-123 -2959)">
      <rect id="Rectángulo_20-4" data-name="Rectángulo 20" width="20" height="20" rx="10" transform="translate(204 2959)" fill="#f6f6f6"/>
    </g>
    <g transform="translate(-96 -2959)">
      <rect id="Rectángulo_20-5" data-name="Rectángulo 20" width="20" height="20" rx="10" transform="translate(204 2959)" fill="#f6f6f6"/>
    </g>
    <g transform="translate(-69 -2959)">
      <rect id="Rectángulo_20-6" data-name="Rectángulo 20" width="20" height="20" rx="10" transform="translate(204 2959)" fill="#f6f6f6"/>
    </g>
    <g transform="translate(-42 -2959)">
      <rect id="Rectángulo_20-7" data-name="Rectángulo 20" width="20" height="20" rx="10" transform="translate(204 2959)" fill="#f6f6f6"/>
    </g>
    <g transform="translate(-15 -2959)">
      <rect id="Rectángulo_20-8" data-name="Rectángulo 20" width="20" height="20" rx="10" transform="translate(204 2959)" fill="#f6f6f6"/>
    </g>
    <g transform="translate(12 -2959)">
      <rect id="Rectángulo_20-9" data-name="Rectángulo 20" width="20" height="20" rx="10" transform="translate(204 2959)" fill="#f6f6f6"/>
    </g>
    <g transform="translate(39 -2959)">
      <rect id="Rectángulo_20-10" data-name="Rectángulo 20" width="20" height="20" rx="10" transform="translate(204 2959)" fill="#f6f6f6"/>
    </g>
    <g transform="translate(66 -2959)">
      <rect id="Rectángulo_20-11" data-name="Rectángulo 20" width="20" height="20" rx="10" transform="translate(204 2959)" fill="#f6f6f6"/>
    </g>
    <g transform="translate(93 -2959)">
      <rect id="Rectángulo_20-12" data-name="Rectángulo 20" width="20" height="20" rx="10" transform="translate(204 2959)" fill="#f6f6f6"/>
    </g>
    <g transform="translate(120 -2959)">
      <rect id="Rectángulo_20-13" data-name="Rectángulo 20" width="20" height="20" rx="10" transform="translate(204 2959)" fill="#f6f6f6"/>
    </g>
    <g transform="translate(-204 -2929)">
      <rect id="Rectángulo_20-14" data-name="Rectángulo 20" width="20" height="20" rx="10" transform="translate(204 2959)" fill="#f6f6f6"/>
    </g>
    <g transform="translate(-177 -2929)">
      <rect id="Rectángulo_20-15" data-name="Rectángulo 20" width="20" height="20" rx="10" transform="translate(204 2959)" fill="#f6f6f6"/>
    </g>
    <g transform="translate(-150 -2929)">
      <rect id="Rectángulo_20-16" data-name="Rectángulo 20" width="20" height="20" rx="10" transform="translate(204 2959)" fill="#f6f6f6"/>
    </g>
    <g transform="translate(-123 -2929)">
      <rect id="Rectángulo_20-17" data-name="Rectángulo 20" width="20" height="20" rx="10" transform="translate(204 2959)" fill="#f6f6f6"/>
    </g>
    <g transform="translate(-96 -2929)">
      <rect id="Rectángulo_20-18" data-name="Rectángulo 20" width="20" height="20" rx="10" transform="translate(204 2959)" fill="#f6f6f6"/>
    </g>
    <g transform="translate(-69 -2929)">
      <rect id="Rectángulo_20-19" data-name="Rectángulo 20" width="20" height="20" rx="10" transform="translate(204 2959)" fill="#f6f6f6"/>
    </g>
    <g transform="translate(-42 -2929)">
      <rect id="Rectángulo_20-20" data-name="Rectángulo 20" width="20" height="20" rx="10" transform="translate(204 2959)" fill="#f6f6f6"/>
    </g>
    <g transform="translate(-15 -2929)">
      <rect id="Rectángulo_20-21" data-name="Rectángulo 20" width="20" height="20" rx="10" transform="translate(204 2959)" fill="#f6f6f6"/>
    </g>
    <g transform="translate(12 -2929)">
      <rect id="Rectángulo_20-22" data-name="Rectángulo 20" width="20" height="20" rx="10" transform="translate(204 2959)" fill="#f6f6f6"/>
    </g>
    <g transform="translate(39 -2929)">
      <rect id="Rectángulo_20-23" data-name="Rectángulo 20" width="20" height="20" rx="10" transform="translate(204 2959)" fill="#f6f6f6"/>
    </g>
    <g transform="translate(66 -2929)">
      <rect id="Rectángulo_20-24" data-name="Rectángulo 20" width="20" height="20" rx="10" transform="translate(204 2959)" fill="#f6f6f6"/>
    </g>
    <g transform="translate(93 -2929)">
      <rect id="Rectángulo_20-25" data-name="Rectángulo 20" width="20" height="20" rx="10" transform="translate(204 2959)" fill="#f6f6f6"/>
    </g>
    <g transform="translate(120 -2929)">
      <rect id="Rectángulo_20-26" data-name="Rectángulo 20" width="20" height="20" rx="10" transform="translate(204 2959)" fill="#f6f6f6"/>
    </g>
    <g transform="translate(-204 -2899)">
      <rect id="Rectángulo_20-27" data-name="Rectángulo 20" width="20" height="20" rx="10" transform="translate(204 2959)" fill="#f6f6f6"/>
    </g>
    <g transform="translate(-177 -2899)">
      <rect id="Rectángulo_20-28" data-name="Rectángulo 20" width="20" height="20" rx="10" transform="translate(204 2959)" fill="#f6f6f6"/>
    </g>
    <g transform="translate(-150 -2899)">
      <rect id="Rectángulo_20-29" data-name="Rectángulo 20" width="20" height="20" rx="10" transform="translate(204 2959)" fill="#f6f6f6"/>
    </g>
    <g transform="translate(-123 -2899)">
      <rect id="Rectángulo_20-30" data-name="Rectángulo 20" width="20" height="20" rx="10" transform="translate(204 2959)" fill="#f6f6f6"/>
    </g>
    <g transform="translate(-96 -2899)">
      <rect id="Rectángulo_20-31" data-name="Rectángulo 20" width="20" height="20" rx="10" transform="translate(204 2959)" fill="#f6f6f6"/>
    </g>
    <g transform="translate(-69 -2899)">
      <rect id="Rectángulo_20-32" data-name="Rectángulo 20" width="20" height="20" rx="10" transform="translate(204 2959)" fill="#f6f6f6"/>
    </g>
    <g transform="translate(-42 -2899)">
      <rect id="Rectángulo_20-33" data-name="Rectángulo 20" width="20" height="20" rx="10" transform="translate(204 2959)" fill="#f6f6f6"/>
    </g>
    <g transform="translate(-15 -2899)">
      <rect id="Rectángulo_20-34" data-name="Rectángulo 20" width="20" height="20" rx="10" transform="translate(204 2959)" fill="#f6f6f6"/>
    </g>
    <g transform="translate(12 -2899)">
      <rect id="Rectángulo_20-35" data-name="Rectángulo 20" width="20" height="20" rx="10" transform="translate(204 2959)" fill="#f6f6f6"/>
    </g>
    <g transform="translate(39 -2899)">
      <rect id="Rectángulo_20-36" data-name="Rectángulo 20" width="20" height="20" rx="10" transform="translate(204 2959)" fill="#f6f6f6"/>
    </g>
    <g transform="translate(66 -2899)">
      <rect id="Rectángulo_20-37" data-name="Rectángulo 20" width="20" height="20" rx="10" transform="translate(204 2959)" fill="#f6f6f6"/>
    </g>
    <g transform="translate(93 -2899)">
      <rect id="Rectángulo_20-38" data-name="Rectángulo 20" width="20" height="20" rx="10" transform="translate(204 2959)" fill="#f6f6f6"/>
    </g>
    <g transform="translate(120 -2899)">
      <rect id="Rectángulo_20-39" data-name="Rectángulo 20" width="20" height="20" rx="10" transform="translate(204 2959)" fill="#f6f6f6"/>
    </g>
    <g transform="translate(-204 -2869)">
      <rect id="Rectángulo_20-40" data-name="Rectángulo 20" width="20" height="20" rx="10" transform="translate(204 2959)" fill="#f6f6f6"/>
    </g>
    <g transform="translate(-177 -2869)">
      <rect id="Rectángulo_20-41" data-name="Rectángulo 20" width="20" height="20" rx="10" transform="translate(204 2959)" fill="#f6f6f6"/>
    </g>
    <g transform="translate(-150 -2869)">
      <rect id="Rectángulo_20-42" data-name="Rectángulo 20" width="20" height="20" rx="10" transform="translate(204 2959)" fill="#f6f6f6"/>
    </g>
    <g transform="translate(-123 -2869)">
      <rect id="Rectángulo_20-43" data-name="Rectángulo 20" width="20" height="20" rx="10" transform="translate(204 2959)" fill="#f6f6f6"/>
    </g>
    <g transform="translate(-96 -2869)">
      <rect id="Rectángulo_20-44" data-name="Rectángulo 20" width="20" height="20" rx="10" transform="translate(204 2959)" fill="#f6f6f6"/>
    </g>
    <g transform="translate(-69 -2869)">
      <rect id="Rectángulo_20-45" data-name="Rectángulo 20" width="20" height="20" rx="10" transform="translate(204 2959)" fill="#f6f6f6"/>
    </g>
    <g transform="translate(-42 -2869)">
      <rect id="Rectángulo_20-46" data-name="Rectángulo 20" width="20" height="20" rx="10" transform="translate(204 2959)" fill="#f6f6f6"/>
    </g>
    <g transform="translate(-15 -2869)">
      <rect id="Rectángulo_20-47" data-name="Rectángulo 20" width="20" height="20" rx="10" transform="translate(204 2959)" fill="#f6f6f6"/>
    </g>
    <g transform="translate(12 -2869)">
      <rect id="Rectángulo_20-48" data-name="Rectángulo 20" width="20" height="20" rx="10" transform="translate(204 2959)" fill="#f6f6f6"/>
    </g>
    <g transform="translate(39 -2869)">
      <rect id="Rectángulo_20-49" data-name="Rectángulo 20" width="20" height="20" rx="10" transform="translate(204 2959)" fill="#f6f6f6"/>
    </g>
    <g transform="translate(66 -2869)">
      <rect id="Rectángulo_20-50" data-name="Rectángulo 20" width="20" height="20" rx="10" transform="translate(204 2959)" fill="#f6f6f6"/>
    </g>
    <g transform="translate(93 -2869)">
      <rect id="Rectángulo_20-51" data-name="Rectángulo 20" width="20" height="20" rx="10" transform="translate(204 2959)" fill="#f6f6f6"/>
    </g>
    <g transform="translate(120 -2869)">
      <rect id="Rectángulo_20-52" data-name="Rectángulo 20" width="20" height="20" rx="10" transform="translate(204 2959)" fill="#f6f6f6"/>
    </g>
    <g transform="translate(-204 -2839)">
      <rect id="Rectángulo_20-53" data-name="Rectángulo 20" width="20" height="20" rx="10" transform="translate(204 2959)" fill="#f6f6f6"/>
    </g>
    <g transform="translate(-177 -2839)">
      <rect id="Rectángulo_20-54" data-name="Rectángulo 20" width="20" height="20" rx="10" transform="translate(204 2959)" fill="#f6f6f6"/>
    </g>
    <g transform="translate(-150 -2839)">
      <rect id="Rectángulo_20-55" data-name="Rectángulo 20" width="20" height="20" rx="10" transform="translate(204 2959)" fill="#f6f6f6"/>
    </g>
    <g transform="translate(-123 -2839)">
      <rect id="Rectángulo_20-56" data-name="Rectángulo 20" width="20" height="20" rx="10" transform="translate(204 2959)" fill="#f6f6f6"/>
    </g>
    <g transform="translate(-96 -2839)">
      <rect id="Rectángulo_20-57" data-name="Rectángulo 20" width="20" height="20" rx="10" transform="translate(204 2959)" fill="#f6f6f6"/>
    </g>
    <g transform="translate(-69 -2839)">
      <rect id="Rectángulo_20-58" data-name="Rectángulo 20" width="20" height="20" rx="10" transform="translate(204 2959)" fill="#f6f6f6"/>
    </g>
    <g transform="translate(-42 -2839)">
      <rect id="Rectángulo_20-59" data-name="Rectángulo 20" width="20" height="20" rx="10" transform="translate(204 2959)" fill="#f6f6f6"/>
    </g>
    <g transform="translate(-15 -2839)">
      <rect id="Rectángulo_20-60" data-name="Rectángulo 20" width="20" height="20" rx="10" transform="translate(204 2959)" fill="#f6f6f6"/>
    </g>
    <g transform="translate(12 -2839)">
      <rect id="Rectángulo_20-61" data-name="Rectángulo 20" width="20" height="20" rx="10" transform="translate(204 2959)" fill="#f6f6f6"/>
    </g>
    <g transform="translate(39 -2839)">
      <rect id="Rectángulo_20-62" data-name="Rectángulo 20" width="20" height="20" rx="10" transform="translate(204 2959)" fill="#f6f6f6"/>
    </g>
    <g transform="translate(66 -2839)">
      <rect id="Rectángulo_20-63" data-name="Rectángulo 20" width="20" height="20" rx="10" transform="translate(204 2959)" fill="#f6f6f6"/>
    </g>
    <g transform="translate(93 -2839)">
      <rect id="Rectángulo_20-64" data-name="Rectángulo 20" width="20" height="20" rx="10" transform="translate(204 2959)" fill="#f6f6f6"/>
    </g>
    <g transform="translate(120 -2839)">
      <rect id="Rectángulo_20-65" data-name="Rectángulo 20" width="20" height="20" rx="10" transform="translate(204 2959)" fill="#f6f6f6"/>
    </g>
    <g transform="translate(-204 -2809)">
      <rect id="Rectángulo_20-66" data-name="Rectángulo 20" width="20" height="20" rx="10" transform="translate(204 2959)" fill="#f6f6f6"/>
    </g>
    <g transform="translate(-177 -2809)">
      <rect id="Rectángulo_20-67" data-name="Rectángulo 20" width="20" height="20" rx="10" transform="translate(204 2959)" fill="#f6f6f6"/>
    </g>
    <g transform="translate(-150 -2809)">
      <rect id="Rectángulo_20-68" data-name="Rectángulo 20" width="20" height="20" rx="10" transform="translate(204 2959)" fill="#f6f6f6"/>
    </g>
    <g transform="translate(-123 -2809)">
      <rect id="Rectángulo_20-69" data-name="Rectángulo 20" width="20" height="20" rx="10" transform="translate(204 2959)" fill="#f6f6f6"/>
    </g>
    <g transform="translate(-96 -2809)">
      <rect id="Rectángulo_20-70" data-name="Rectángulo 20" width="20" height="20" rx="10" transform="translate(204 2959)" fill="#f6f6f6"/>
    </g>
    <g transform="translate(-69 -2809)">
      <rect id="Rectángulo_20-71" data-name="Rectángulo 20" width="20" height="20" rx="10" transform="translate(204 2959)" fill="#f6f6f6"/>
    </g>
    <g transform="translate(-42 -2809)">
      <rect id="Rectángulo_20-72" data-name="Rectángulo 20" width="20" height="20" rx="10" transform="translate(204 2959)" fill="#f6f6f6"/>
    </g>
    <g transform="translate(-15 -2809)">
      <rect id="Rectángulo_20-73" data-name="Rectángulo 20" width="20" height="20" rx="10" transform="translate(204 2959)" fill="#f6f6f6"/>
    </g>
    <g transform="translate(12 -2809)">
      <rect id="Rectángulo_20-74" data-name="Rectángulo 20" width="20" height="20" rx="10" transform="translate(204 2959)" fill="#f6f6f6"/>
    </g>
    <g transform="translate(39 -2809)">
      <rect id="Rectángulo_20-75" data-name="Rectángulo 20" width="20" height="20" rx="10" transform="translate(204 2959)" fill="#f6f6f6"/>
    </g>
    <g transform="translate(66 -2809)">
      <rect id="Rectángulo_20-76" data-name="Rectángulo 20" width="20" height="20" rx="10" transform="translate(204 2959)" fill="#f6f6f6"/>
    </g>
    <g transform="translate(93 -2809)">
      <rect id="Rectángulo_20-77" data-name="Rectángulo 20" width="20" height="20" rx="10" transform="translate(204 2959)" fill="#f6f6f6"/>
    </g>
    <g transform="translate(120 -2809)">
      <rect id="Rectángulo_20-78" data-name="Rectángulo 20" width="20" height="20" rx="10" transform="translate(204 2959)" fill="#f6f6f6"/>
    </g>
    <g transform="translate(-204 -2779)">
      <rect id="Rectángulo_20-79" data-name="Rectángulo 20" width="20" height="20" rx="10" transform="translate(204 2959)" fill="#f6f6f6"/>
    </g>
    <g transform="translate(-177 -2779)">
      <rect id="Rectángulo_20-80" data-name="Rectángulo 20" width="20" height="20" rx="10" transform="translate(204 2959)" fill="#f6f6f6"/>
    </g>
    <g transform="translate(-150 -2779)">
      <rect id="Rectángulo_20-81" data-name="Rectángulo 20" width="20" height="20" rx="10" transform="translate(204 2959)" fill="#f6f6f6"/>
    </g>
    <g transform="translate(-123 -2779)">
      <rect id="Rectángulo_20-82" data-name="Rectángulo 20" width="20" height="20" rx="10" transform="translate(204 2959)" fill="#f6f6f6"/>
    </g>
    <g transform="translate(-96 -2779)">
      <rect id="Rectángulo_20-83" data-name="Rectángulo 20" width="20" height="20" rx="10" transform="translate(204 2959)" fill="#f6f6f6"/>
    </g>
    <g transform="translate(-69 -2779)">
      <rect id="Rectángulo_20-84" data-name="Rectángulo 20" width="20" height="20" rx="10" transform="translate(204 2959)" fill="#f6f6f6"/>
    </g>
    <g transform="translate(-42 -2779)">
      <rect id="Rectángulo_20-85" data-name="Rectángulo 20" width="20" height="20" rx="10" transform="translate(204 2959)" fill="#f6f6f6"/>
    </g>
    <g transform="translate(-15 -2779)">
      <rect id="Rectángulo_20-86" data-name="Rectángulo 20" width="20" height="20" rx="10" transform="translate(204 2959)" fill="#f6f6f6"/>
    </g>
    <g transform="translate(12 -2779)">
      <rect id="Rectángulo_20-87" data-name="Rectángulo 20" width="20" height="20" rx="10" transform="translate(204 2959)" fill="#f6f6f6"/>
    </g>
    <g transform="translate(39 -2779)">
      <rect id="Rectángulo_20-88" data-name="Rectángulo 20" width="20" height="20" rx="10" transform="translate(204 2959)" fill="#f6f6f6"/>
    </g>
    <g transform="translate(66 -2779)">
      <rect id="Rectángulo_20-89" data-name="Rectángulo 20" width="20" height="20" rx="10" transform="translate(204 2959)" fill="#f6f6f6"/>
    </g>
    <g transform="translate(93 -2779)">
      <rect id="Rectángulo_20-90" data-name="Rectángulo 20" width="20" height="20" rx="10" transform="translate(204 2959)" fill="#f6f6f6"/>
    </g>
    <g transform="translate(120 -2779)">
      <rect id="Rectángulo_20-91" data-name="Rectángulo 20" width="20" height="20" rx="10" transform="translate(204 2959)" fill="#f6f6f6"/>
    </g>
    <g transform="translate(-204 -2749)">
      <rect id="Rectángulo_20-92" data-name="Rectángulo 20" width="20" height="20" rx="10" transform="translate(204 2959)" fill="#f6f6f6"/>
    </g>
    <g transform="translate(-177 -2749)">
      <rect id="Rectángulo_20-93" data-name="Rectángulo 20" width="20" height="20" rx="10" transform="translate(204 2959)" fill="#f6f6f6"/>
    </g>
    <g transform="translate(-150 -2749)">
      <rect id="Rectángulo_20-94" data-name="Rectángulo 20" width="20" height="20" rx="10" transform="translate(204 2959)" fill="#f6f6f6"/>
    </g>
    <g transform="translate(-123 -2749)">
      <rect id="Rectángulo_20-95" data-name="Rectángulo 20" width="20" height="20" rx="10" transform="translate(204 2959)" fill="#f6f6f6"/>
    </g>
    <g transform="translate(-96 -2749)">
      <rect id="Rectángulo_20-96" data-name="Rectángulo 20" width="20" height="20" rx="10" transform="translate(204 2959)" fill="#f6f6f6"/>
    </g>
    <g transform="translate(-69 -2749)">
      <rect id="Rectángulo_20-97" data-name="Rectángulo 20" width="20" height="20" rx="10" transform="translate(204 2959)" fill="#f6f6f6"/>
    </g>
    <g transform="translate(-42 -2749)">
      <rect id="Rectángulo_20-98" data-name="Rectángulo 20" width="20" height="20" rx="10" transform="translate(204 2959)" fill="#f6f6f6"/>
    </g>
    <g transform="translate(-15 -2749)">
      <rect id="Rectángulo_20-99" data-name="Rectángulo 20" width="20" height="20" rx="10" transform="translate(204 2959)" fill="#f6f6f6"/>
    </g>
    <g transform="translate(12 -2749)">
      <rect id="Rectángulo_20-100" data-name="Rectángulo 20" width="20" height="20" rx="10" transform="translate(204 2959)" fill="#f6f6f6"/>
    </g>
    <g transform="translate(39 -2749)">
      <rect id="Rectángulo_20-101" data-name="Rectángulo 20" width="20" height="20" rx="10" transform="translate(204 2959)" fill="#f6f6f6"/>
    </g>
    <g transform="translate(66 -2749)">
      <rect id="Rectángulo_20-102" data-name="Rectángulo 20" width="20" height="20" rx="10" transform="translate(204 2959)" fill="#f6f6f6"/>
    </g>
    <g transform="translate(93 -2749)">
      <rect id="Rectángulo_20-103" data-name="Rectángulo 20" width="20" height="20" rx="10" transform="translate(204 2959)" fill="#f6f6f6"/>
    </g>
    <g transform="translate(120 -2749)">
      <rect id="Rectángulo_20-104" data-name="Rectángulo 20" width="20" height="20" rx="10" transform="translate(204 2959)" fill="#f6f6f6"/>
    </g>
    <g transform="translate(-204 -2719)">
      <rect id="Rectángulo_20-105" data-name="Rectángulo 20" width="20" height="20" rx="10" transform="translate(204 2959)" fill="#f6f6f6"/>
    </g>
    <g transform="translate(-177 -2719)">
      <rect id="Rectángulo_20-106" data-name="Rectángulo 20" width="20" height="20" rx="10" transform="translate(204 2959)" fill="#f6f6f6"/>
    </g>
    <g transform="translate(-150 -2719)">
      <rect id="Rectángulo_20-107" data-name="Rectángulo 20" width="20" height="20" rx="10" transform="translate(204 2959)" fill="#f6f6f6"/>
    </g>
    <g transform="translate(-123 -2719)">
      <rect id="Rectángulo_20-108" data-name="Rectángulo 20" width="20" height="20" rx="10" transform="translate(204 2959)" fill="#f6f6f6"/>
    </g>
    <g transform="translate(-96 -2719)">
      <rect id="Rectángulo_20-109" data-name="Rectángulo 20" width="20" height="20" rx="10" transform="translate(204 2959)" fill="#f6f6f6"/>
    </g>
    <g transform="translate(-69 -2719)">
      <rect id="Rectángulo_20-110" data-name="Rectángulo 20" width="20" height="20" rx="10" transform="translate(204 2959)" fill="#f6f6f6"/>
    </g>
    <g transform="translate(-42 -2719)">
      <rect id="Rectángulo_20-111" data-name="Rectángulo 20" width="20" height="20" rx="10" transform="translate(204 2959)" fill="#f6f6f6"/>
    </g>
    <g transform="translate(-15 -2719)">
      <rect id="Rectángulo_20-112" data-name="Rectángulo 20" width="20" height="20" rx="10" transform="translate(204 2959)" fill="#f6f6f6"/>
    </g>
    <g transform="translate(12 -2719)">
      <rect id="Rectángulo_20-113" data-name="Rectángulo 20" width="20" height="20" rx="10" transform="translate(204 2959)" fill="#f6f6f6"/>
    </g>
    <g transform="translate(39 -2719)">
      <rect id="Rectángulo_20-114" data-name="Rectángulo 20" width="20" height="20" rx="10" transform="translate(204 2959)" fill="#f6f6f6"/>
    </g>
    <g transform="translate(66 -2719)">
      <rect id="Rectángulo_20-115" data-name="Rectángulo 20" width="20" height="20" rx="10" transform="translate(204 2959)" fill="#f6f6f6"/>
    </g>
    <g transform="translate(93 -2719)">
      <rect id="Rectángulo_20-116" data-name="Rectángulo 20" width="20" height="20" rx="10" transform="translate(204 2959)" fill="#f6f6f6"/>
    </g>
    <g transform="translate(120 -2719)">
      <rect id="Rectángulo_20-117" data-name="Rectángulo 20" width="20" height="20" rx="10" transform="translate(204 2959)" fill="#f6f6f6"/>
    </g>
    <g transform="translate(-204 -2689)">
      <rect id="Rectángulo_20-118" data-name="Rectángulo 20" width="20" height="20" rx="10" transform="translate(204 2959)" fill="#f6f6f6"/>
    </g>
    <g transform="translate(-177 -2689)">
      <rect id="Rectángulo_20-119" data-name="Rectángulo 20" width="20" height="20" rx="10" transform="translate(204 2959)" fill="#f6f6f6"/>
    </g>
    <g transform="translate(-150 -2689)">
      <rect id="Rectángulo_20-120" data-name="Rectángulo 20" width="20" height="20" rx="10" transform="translate(204 2959)" fill="#f6f6f6"/>
    </g>
    <g transform="translate(-123 -2689)">
      <rect id="Rectángulo_20-121" data-name="Rectángulo 20" width="20" height="20" rx="10" transform="translate(204 2959)" fill="#f6f6f6"/>
    </g>
    <g transform="translate(-96 -2689)">
      <rect id="Rectángulo_20-122" data-name="Rectángulo 20" width="20" height="20" rx="10" transform="translate(204 2959)" fill="#f6f6f6"/>
    </g>
    <g transform="translate(-69 -2689)">
      <rect id="Rectángulo_20-123" data-name="Rectángulo 20" width="20" height="20" rx="10" transform="translate(204 2959)" fill="#f6f6f6"/>
    </g>
    <g transform="translate(-42 -2689)">
      <rect id="Rectángulo_20-124" data-name="Rectángulo 20" width="20" height="20" rx="10" transform="translate(204 2959)" fill="#f6f6f6"/>
    </g>
    <g transform="translate(-15 -2689)">
      <rect id="Rectángulo_20-125" data-name="Rectángulo 20" width="20" height="20" rx="10" transform="translate(204 2959)" fill="#f6f6f6"/>
    </g>
    <g transform="translate(12 -2689)">
      <rect id="Rectángulo_20-126" data-name="Rectángulo 20" width="20" height="20" rx="10" transform="translate(204 2959)" fill="#f6f6f6"/>
    </g>
    <g transform="translate(39 -2689)">
      <rect id="Rectángulo_20-127" data-name="Rectángulo 20" width="20" height="20" rx="10" transform="translate(204 2959)" fill="#f6f6f6"/>
    </g>
    <g transform="translate(66 -2689)">
      <rect id="Rectángulo_20-128" data-name="Rectángulo 20" width="20" height="20" rx="10" transform="translate(204 2959)" fill="#f6f6f6"/>
    </g>
    <g transform="translate(93 -2689)">
      <rect id="Rectángulo_20-129" data-name="Rectángulo 20" width="20" height="20" rx="10" transform="translate(204 2959)" fill="#f6f6f6"/>
    </g>
    <g transform="translate(120 -2689)">
      <rect id="Rectángulo_20-130" data-name="Rectángulo 20" width="20" height="20" rx="10" transform="translate(204 2959)" fill="#f6f6f6"/>
    </g>
    <g transform="translate(-204 -2659)">
      <rect id="Rectángulo_20-131" data-name="Rectángulo 20" width="20" height="20" rx="10" transform="translate(204 2959)" fill="#f6f6f6"/>
    </g>
    <g transform="translate(-177 -2659)">
      <rect id="Rectángulo_20-132" data-name="Rectángulo 20" width="20" height="20" rx="10" transform="translate(204 2959)" fill="#f6f6f6"/>
    </g>
    <g transform="translate(-150 -2659)">
      <rect id="Rectángulo_20-133" data-name="Rectángulo 20" width="20" height="20" rx="10" transform="translate(204 2959)" fill="#f6f6f6"/>
    </g>
    <g transform="translate(-123 -2659)">
      <rect id="Rectángulo_20-134" data-name="Rectángulo 20" width="20" height="20" rx="10" transform="translate(204 2959)" fill="#f6f6f6"/>
    </g>
    <g transform="translate(-96 -2659)">
      <rect id="Rectángulo_20-135" data-name="Rectángulo 20" width="20" height="20" rx="10" transform="translate(204 2959)" fill="#f6f6f6"/>
    </g>
    <g transform="translate(-69 -2659)">
      <rect id="Rectángulo_20-136" data-name="Rectángulo 20" width="20" height="20" rx="10" transform="translate(204 2959)" fill="#f6f6f6"/>
    </g>
    <g transform="translate(-42 -2659)">
      <rect id="Rectángulo_20-137" data-name="Rectángulo 20" width="20" height="20" rx="10" transform="translate(204 2959)" fill="#f6f6f6"/>
    </g>
    <g transform="translate(-15 -2659)">
      <rect id="Rectángulo_20-138" data-name="Rectángulo 20" width="20" height="20" rx="10" transform="translate(204 2959)" fill="#f6f6f6"/>
    </g>
    <g transform="translate(12 -2659)">
      <rect id="Rectángulo_20-139" data-name="Rectángulo 20" width="20" height="20" rx="10" transform="translate(204 2959)" fill="#f6f6f6"/>
    </g>
    <g transform="translate(39 -2659)">
      <rect id="Rectángulo_20-140" data-name="Rectángulo 20" width="20" height="20" rx="10" transform="translate(204 2959)" fill="#f6f6f6"/>
    </g>
    <g transform="translate(66 -2659)">
      <rect id="Rectángulo_20-141" data-name="Rectángulo 20" width="20" height="20" rx="10" transform="translate(204 2959)" fill="#f6f6f6"/>
    </g>
    <g transform="translate(93 -2659)">
      <rect id="Rectángulo_20-142" data-name="Rectángulo 20" width="20" height="20" rx="10" transform="translate(204 2959)" fill="#f6f6f6"/>
    </g>
    <g transform="translate(120 -2659)">
      <rect id="Rectángulo_20-143" data-name="Rectángulo 20" width="20" height="20" rx="10" transform="translate(204 2959)" fill="#f6f6f6"/>
    </g>
    <g transform="translate(-204 -2629)">
      <rect id="Rectángulo_20-144" data-name="Rectángulo 20" width="20" height="20" rx="10" transform="translate(204 2959)" fill="#f6f6f6"/>
    </g>
    <g transform="translate(-177 -2629)">
      <rect id="Rectángulo_20-145" data-name="Rectángulo 20" width="20" height="20" rx="10" transform="translate(204 2959)" fill="#f6f6f6"/>
    </g>
    <g transform="translate(-150 -2629)">
      <rect id="Rectángulo_20-146" data-name="Rectángulo 20" width="20" height="20" rx="10" transform="translate(204 2959)" fill="#f6f6f6"/>
    </g>
    <g transform="translate(-123 -2629)">
      <rect id="Rectángulo_20-147" data-name="Rectángulo 20" width="20" height="20" rx="10" transform="translate(204 2959)" fill="#f6f6f6"/>
    </g>
    <g transform="translate(-96 -2629)">
      <rect id="Rectángulo_20-148" data-name="Rectángulo 20" width="20" height="20" rx="10" transform="translate(204 2959)" fill="#f6f6f6"/>
    </g>
    <g transform="translate(-69 -2629)">
      <rect id="Rectángulo_20-149" data-name="Rectángulo 20" width="20" height="20" rx="10" transform="translate(204 2959)" fill="#f6f6f6"/>
    </g>
    <g transform="translate(-42 -2629)">
      <rect id="Rectángulo_20-150" data-name="Rectángulo 20" width="20" height="20" rx="10" transform="translate(204 2959)" fill="#f6f6f6"/>
    </g>
    <g transform="translate(-15 -2629)">
      <rect id="Rectángulo_20-151" data-name="Rectángulo 20" width="20" height="20" rx="10" transform="translate(204 2959)" fill="#f6f6f6"/>
    </g>
    <g transform="translate(12 -2629)">
      <rect id="Rectángulo_20-152" data-name="Rectángulo 20" width="20" height="20" rx="10" transform="translate(204 2959)" fill="#f6f6f6"/>
    </g>
    <g transform="translate(39 -2629)">
      <rect id="Rectángulo_20-153" data-name="Rectángulo 20" width="20" height="20" rx="10" transform="translate(204 2959)" fill="#f6f6f6"/>
    </g>
    <g transform="translate(66 -2629)">
      <rect id="Rectángulo_20-154" data-name="Rectángulo 20" width="20" height="20" rx="10" transform="translate(204 2959)" fill="#f6f6f6"/>
    </g>
    <g transform="translate(93 -2629)">
      <rect id="Rectángulo_20-155" data-name="Rectángulo 20" width="20" height="20" rx="10" transform="translate(204 2959)" fill="#f6f6f6"/>
    </g>
    <g transform="translate(120 -2629)">
      <rect id="Rectángulo_20-156" data-name="Rectángulo 20" width="20" height="20" rx="10" transform="translate(204 2959)" fill="#f6f6f6"/>
    </g>
    <g transform="translate(-204 -2599)">
      <rect id="Rectángulo_20-157" data-name="Rectángulo 20" width="20" height="20" rx="10" transform="translate(204 2959)" fill="#f6f6f6"/>
    </g>
    <g transform="translate(-177 -2599)">
      <rect id="Rectángulo_20-158" data-name="Rectángulo 20" width="20" height="20" rx="10" transform="translate(204 2959)" fill="#f6f6f6"/>
    </g>
    <g transform="translate(-150 -2599)">
      <rect id="Rectángulo_20-159" data-name="Rectángulo 20" width="20" height="20" rx="10" transform="translate(204 2959)" fill="#f6f6f6"/>
    </g>
    <g transform="translate(-123 -2599)">
      <rect id="Rectángulo_20-160" data-name="Rectángulo 20" width="20" height="20" rx="10" transform="translate(204 2959)" fill="#f6f6f6"/>
    </g>
    <g transform="translate(-96 -2599)">
      <rect id="Rectángulo_20-161" data-name="Rectángulo 20" width="20" height="20" rx="10" transform="translate(204 2959)" fill="#f6f6f6"/>
    </g>
    <g transform="translate(-69 -2599)">
      <rect id="Rectángulo_20-162" data-name="Rectángulo 20" width="20" height="20" rx="10" transform="translate(204 2959)" fill="#f6f6f6"/>
    </g>
    <g transform="translate(-42 -2599)">
      <rect id="Rectángulo_20-163" data-name="Rectángulo 20" width="20" height="20" rx="10" transform="translate(204 2959)" fill="#f6f6f6"/>
    </g>
    <g transform="translate(-15 -2599)">
      <rect id="Rectángulo_20-164" data-name="Rectángulo 20" width="20" height="20" rx="10" transform="translate(204 2959)" fill="#f6f6f6"/>
    </g>
    <g transform="translate(12 -2599)">
      <rect id="Rectángulo_20-165" data-name="Rectángulo 20" width="20" height="20" rx="10" transform="translate(204 2959)" fill="#f6f6f6"/>
    </g>
    <g transform="translate(39 -2599)">
      <rect id="Rectángulo_20-166" data-name="Rectángulo 20" width="20" height="20" rx="10" transform="translate(204 2959)" fill="#f6f6f6"/>
    </g>
    <g transform="translate(66 -2599)">
      <rect id="Rectángulo_20-167" data-name="Rectángulo 20" width="20" height="20" rx="10" transform="translate(204 2959)" fill="#f6f6f6"/>
    </g>
    <g transform="translate(93 -2599)">
      <rect id="Rectángulo_20-168" data-name="Rectángulo 20" width="20" height="20" rx="10" transform="translate(204 2959)" fill="#f6f6f6"/>
    </g>
    <g transform="translate(120 -2599)">
      <rect id="Rectángulo_20-169" data-name="Rectángulo 20" width="20" height="20" rx="10" transform="translate(204 2959)" fill="#f6f6f6"/>
    </g>
    <g transform="translate(-204 -2569)">
      <rect id="Rectángulo_20-170" data-name="Rectángulo 20" width="20" height="20" rx="10" transform="translate(204 2959)" fill="#f6f6f6"/>
    </g>
    <g transform="translate(-177 -2569)">
      <rect id="Rectángulo_20-171" data-name="Rectángulo 20" width="20" height="20" rx="10" transform="translate(204 2959)" fill="#f6f6f6"/>
    </g>
    <g transform="translate(-150 -2569)">
      <rect id="Rectángulo_20-172" data-name="Rectángulo 20" width="20" height="20" rx="10" transform="translate(204 2959)" fill="#f6f6f6"/>
    </g>
    <g transform="translate(-123 -2569)">
      <rect id="Rectángulo_20-173" data-name="Rectángulo 20" width="20" height="20" rx="10" transform="translate(204 2959)" fill="#f6f6f6"/>
    </g>
    <g transform="translate(-96 -2569)">
      <rect id="Rectángulo_20-174" data-name="Rectángulo 20" width="20" height="20" rx="10" transform="translate(204 2959)" fill="#f6f6f6"/>
    </g>
    <g transform="translate(-69 -2569)">
      <rect id="Rectángulo_20-175" data-name="Rectángulo 20" width="20" height="20" rx="10" transform="translate(204 2959)" fill="#f6f6f6"/>
    </g>
    <g transform="translate(-42 -2569)">
      <rect id="Rectángulo_20-176" data-name="Rectángulo 20" width="20" height="20" rx="10" transform="translate(204 2959)" fill="#f6f6f6"/>
    </g>
    <g transform="translate(-15 -2569)">
      <rect id="Rectángulo_20-177" data-name="Rectángulo 20" width="20" height="20" rx="10" transform="translate(204 2959)" fill="#f6f6f6"/>
    </g>
    <g transform="translate(12 -2569)">
      <rect id="Rectángulo_20-178" data-name="Rectángulo 20" width="20" height="20" rx="10" transform="translate(204 2959)" fill="#f6f6f6"/>
    </g>
    <g transform="translate(39 -2569)">
      <rect id="Rectángulo_20-179" data-name="Rectángulo 20" width="20" height="20" rx="10" transform="translate(204 2959)" fill="#f6f6f6"/>
    </g>
    <g transform="translate(66 -2569)">
      <rect id="Rectángulo_20-180" data-name="Rectángulo 20" width="20" height="20" rx="10" transform="translate(204 2959)" fill="#f6f6f6"/>
    </g>
    <g transform="translate(93 -2569)">
      <rect id="Rectángulo_20-181" data-name="Rectángulo 20" width="20" height="20" rx="10" transform="translate(204 2959)" fill="#f6f6f6"/>
    </g>
    <g transform="translate(120 -2569)">
      <rect id="Rectángulo_20-182" data-name="Rectángulo 20" width="20" height="20" rx="10" transform="translate(204 2959)" fill="#f6f6f6"/>
    </g>
    <g transform="translate(-204 -2539)">
      <rect id="Rectángulo_20-183" data-name="Rectángulo 20" width="20" height="20" rx="10" transform="translate(204 2959)" fill="#f6f6f6"/>
    </g>
    <g transform="translate(-177 -2539)">
      <rect id="Rectángulo_20-184" data-name="Rectángulo 20" width="20" height="20" rx="10" transform="translate(204 2959)" fill="#f6f6f6"/>
    </g>
    <g transform="translate(-150 -2539)">
      <rect id="Rectángulo_20-185" data-name="Rectángulo 20" width="20" height="20" rx="10" transform="translate(204 2959)" fill="#f6f6f6"/>
    </g>
    <g transform="translate(-123 -2539)">
      <rect id="Rectángulo_20-186" data-name="Rectángulo 20" width="20" height="20" rx="10" transform="translate(204 2959)" fill="#f6f6f6"/>
    </g>
    <g transform="translate(-96 -2539)">
      <rect id="Rectángulo_20-187" data-name="Rectángulo 20" width="20" height="20" rx="10" transform="translate(204 2959)" fill="#f6f6f6"/>
    </g>
    <g transform="translate(-69 -2539)">
      <rect id="Rectángulo_20-188" data-name="Rectángulo 20" width="20" height="20" rx="10" transform="translate(204 2959)" fill="#f6f6f6"/>
    </g>
    <g transform="translate(-42 -2539)">
      <rect id="Rectángulo_20-189" data-name="Rectángulo 20" width="20" height="20" rx="10" transform="translate(204 2959)" fill="#f6f6f6"/>
    </g>
    <g transform="translate(-15 -2539)">
      <rect id="Rectángulo_20-190" data-name="Rectángulo 20" width="20" height="20" rx="10" transform="translate(204 2959)" fill="#f6f6f6"/>
    </g>
    <g transform="translate(12 -2539)">
      <rect id="Rectángulo_20-191" data-name="Rectángulo 20" width="20" height="20" rx="10" transform="translate(204 2959)" fill="#f6f6f6"/>
    </g>
    <g transform="translate(39 -2539)">
      <rect id="Rectángulo_20-192" data-name="Rectángulo 20" width="20" height="20" rx="10" transform="translate(204 2959)" fill="#f6f6f6"/>
    </g>
    <g transform="translate(66 -2539)">
      <rect id="Rectángulo_20-193" data-name="Rectángulo 20" width="20" height="20" rx="10" transform="translate(204 2959)" fill="#f6f6f6"/>
    </g>
    <g transform="translate(93 -2539)">
      <rect id="Rectángulo_20-194" data-name="Rectángulo 20" width="20" height="20" rx="10" transform="translate(204 2959)" fill="#f6f6f6"/>
    </g>
    <g transform="translate(120 -2539)">
      <rect id="Rectángulo_20-195" data-name="Rectángulo 20" width="20" height="20" rx="10" transform="translate(204 2959)" fill="#f6f6f6"/>
    </g>
  </g>
</svg>
