<svg xmlns="http://www.w3.org/2000/svg" xmlns:xlink="http://www.w3.org/1999/xlink" width="292" height="202" viewBox="0 0 292 202"><defs><clipPath id="a"><rect width="292" height="202" fill="none"/></clipPath></defs><g clip-path="url(#a)"><g transform="translate(-204 -2959)"><rect width="20" height="20" rx="10" transform="translate(204 2959)" fill="#f6f6f6"/></g><g transform="translate(-177 -2959)"><rect width="20" height="20" rx="10" transform="translate(204 2959)" fill="#f6f6f6"/></g><g transform="translate(-150 -2959)"><rect width="20" height="20" rx="10" transform="translate(204 2959)" fill="#f6f6f6"/></g><g transform="translate(-123 -2959)"><rect width="20" height="20" rx="10" transform="translate(204 2959)" fill="#f6f6f6"/></g><g transform="translate(-96 -2959)"><rect width="20" height="20" rx="10" transform="translate(204 2959)" fill="#f6f6f6"/></g><g transform="translate(-69 -2959)"><rect width="20" height="20" rx="10" transform="translate(204 2959)" fill="#f6f6f6"/></g><g transform="translate(-42 -2959)"><rect width="20" height="20" rx="10" transform="translate(204 2959)" fill="#f6f6f6"/></g><g transform="translate(-15 -2959)"><rect width="20" height="20" rx="10" transform="translate(204 2959)" fill="#f6f6f6"/></g><g transform="translate(12 -2959)"><rect width="20" height="20" rx="10" transform="translate(204 2959)" fill="#f6f6f6"/></g><g transform="translate(39 -2959)"><rect width="20" height="20" rx="10" transform="translate(204 2959)" fill="#f6f6f6"/></g><g transform="translate(66 -2959)"><rect width="20" height="20" rx="10" transform="translate(204 2959)" fill="#f6f6f6"/></g><g transform="translate(-204 -2929)"><rect width="20" height="20" rx="10" transform="translate(204 2959)" fill="#f6f6f6"/></g><g transform="translate(-177 -2929)"><rect width="20" height="20" rx="10" transform="translate(204 2959)" fill="#f6f6f6"/></g><g transform="translate(-150 -2929)"><rect width="20" height="20" rx="10" transform="translate(204 2959)" fill="#f6f6f6"/></g><g transform="translate(-123 -2929)"><rect width="20" height="20" rx="10" transform="translate(204 2959)" fill="#f6f6f6"/></g><g transform="translate(-96 -2929)"><rect width="20" height="20" rx="10" transform="translate(204 2959)" fill="#f6f6f6"/></g><g transform="translate(-69 -2929)"><rect width="20" height="20" rx="10" transform="translate(204 2959)" fill="#f6f6f6"/></g><g transform="translate(-42 -2929)"><rect width="20" height="20" rx="10" transform="translate(204 2959)" fill="#f6f6f6"/></g><g transform="translate(-15 -2929)"><rect width="20" height="20" rx="10" transform="translate(204 2959)" fill="#f6f6f6"/></g><g transform="translate(12 -2929)"><rect width="20" height="20" rx="10" transform="translate(204 2959)" fill="#f6f6f6"/></g><g transform="translate(39 -2929)"><rect width="20" height="20" rx="10" transform="translate(204 2959)" fill="#f6f6f6"/></g><g transform="translate(66 -2929)"><rect width="20" height="20" rx="10" transform="translate(204 2959)" fill="#f6f6f6"/></g><g transform="translate(-204 -2899)"><rect width="20" height="20" rx="10" transform="translate(204 2959)" fill="#f6f6f6"/></g><g transform="translate(-177 -2899)"><rect width="20" height="20" rx="10" transform="translate(204 2959)" fill="#f6f6f6"/></g><g transform="translate(-150 -2899)"><rect width="20" height="20" rx="10" transform="translate(204 2959)" fill="#f6f6f6"/></g><g transform="translate(-123 -2899)"><rect width="20" height="20" rx="10" transform="translate(204 2959)" fill="#f6f6f6"/></g><g transform="translate(-96 -2899)"><rect width="20" height="20" rx="10" transform="translate(204 2959)" fill="#f6f6f6"/></g><g transform="translate(-69 -2899)"><rect width="20" height="20" rx="10" transform="translate(204 2959)" fill="#f6f6f6"/></g><g transform="translate(-42 -2899)"><rect width="20" height="20" rx="10" transform="translate(204 2959)" fill="#f6f6f6"/></g><g transform="translate(-15 -2899)"><rect width="20" height="20" rx="10" transform="translate(204 2959)" fill="#f6f6f6"/></g><g transform="translate(12 -2899)"><rect width="20" height="20" rx="10" transform="translate(204 2959)" fill="#f6f6f6"/></g><g transform="translate(39 -2899)"><rect width="20" height="20" rx="10" transform="translate(204 2959)" fill="#f6f6f6"/></g><g transform="translate(66 -2899)"><rect width="20" height="20" rx="10" transform="translate(204 2959)" fill="#f6f6f6"/></g><g transform="translate(-204 -2869)"><rect width="20" height="20" rx="10" transform="translate(204 2959)" fill="#f6f6f6"/></g><g transform="translate(-177 -2869)"><rect width="20" height="20" rx="10" transform="translate(204 2959)" fill="#f6f6f6"/></g><g transform="translate(-150 -2869)"><rect width="20" height="20" rx="10" transform="translate(204 2959)" fill="#f6f6f6"/></g><g transform="translate(-123 -2869)"><rect width="20" height="20" rx="10" transform="translate(204 2959)" fill="#f6f6f6"/></g><g transform="translate(-96 -2869)"><rect width="20" height="20" rx="10" transform="translate(204 2959)" fill="#f6f6f6"/></g><g transform="translate(-69 -2869)"><rect width="20" height="20" rx="10" transform="translate(204 2959)" fill="#f6f6f6"/></g><g transform="translate(-42 -2869)"><rect width="20" height="20" rx="10" transform="translate(204 2959)" fill="#f6f6f6"/></g><g transform="translate(-15 -2869)"><rect width="20" height="20" rx="10" transform="translate(204 2959)" fill="#f6f6f6"/></g><g transform="translate(12 -2869)"><rect width="20" height="20" rx="10" transform="translate(204 2959)" fill="#f6f6f6"/></g><g transform="translate(39 -2869)"><rect width="20" height="20" rx="10" transform="translate(204 2959)" fill="#f6f6f6"/></g><g transform="translate(66 -2869)"><rect width="20" height="20" rx="10" transform="translate(204 2959)" fill="#f6f6f6"/></g><g transform="translate(-204 -2839)"><rect width="20" height="20" rx="10" transform="translate(204 2959)" fill="#f6f6f6"/></g><g transform="translate(-177 -2839)"><rect width="20" height="20" rx="10" transform="translate(204 2959)" fill="#f6f6f6"/></g><g transform="translate(-150 -2839)"><rect width="20" height="20" rx="10" transform="translate(204 2959)" fill="#f6f6f6"/></g><g transform="translate(-123 -2839)"><rect width="20" height="20" rx="10" transform="translate(204 2959)" fill="#f6f6f6"/></g><g transform="translate(-96 -2839)"><rect width="20" height="20" rx="10" transform="translate(204 2959)" fill="#f6f6f6"/></g><g transform="translate(-69 -2839)"><rect width="20" height="20" rx="10" transform="translate(204 2959)" fill="#f6f6f6"/></g><g transform="translate(-42 -2839)"><rect width="20" height="20" rx="10" transform="translate(204 2959)" fill="#f6f6f6"/></g><g transform="translate(-15 -2839)"><rect width="20" height="20" rx="10" transform="translate(204 2959)" fill="#f6f6f6"/></g><g transform="translate(12 -2839)"><rect width="20" height="20" rx="10" transform="translate(204 2959)" fill="#f6f6f6"/></g><g transform="translate(39 -2839)"><rect width="20" height="20" rx="10" transform="translate(204 2959)" fill="#f6f6f6"/></g><g transform="translate(66 -2839)"><rect width="20" height="20" rx="10" transform="translate(204 2959)" fill="#f6f6f6"/></g><g transform="translate(-204 -2809)"><rect width="20" height="20" rx="10" transform="translate(204 2959)" fill="#f6f6f6"/></g><g transform="translate(-177 -2809)"><rect width="20" height="20" rx="10" transform="translate(204 2959)" fill="#f6f6f6"/></g><g transform="translate(-150 -2809)"><rect width="20" height="20" rx="10" transform="translate(204 2959)" fill="#f6f6f6"/></g><g transform="translate(-123 -2809)"><rect width="20" height="20" rx="10" transform="translate(204 2959)" fill="#f6f6f6"/></g><g transform="translate(-96 -2809)"><rect width="20" height="20" rx="10" transform="translate(204 2959)" fill="#f6f6f6"/></g><g transform="translate(-69 -2809)"><rect width="20" height="20" rx="10" transform="translate(204 2959)" fill="#f6f6f6"/></g><g transform="translate(-42 -2809)"><rect width="20" height="20" rx="10" transform="translate(204 2959)" fill="#f6f6f6"/></g><g transform="translate(-15 -2809)"><rect width="20" height="20" rx="10" transform="translate(204 2959)" fill="#f6f6f6"/></g><g transform="translate(12 -2809)"><rect width="20" height="20" rx="10" transform="translate(204 2959)" fill="#f6f6f6"/></g><g transform="translate(39 -2809)"><rect width="20" height="20" rx="10" transform="translate(204 2959)" fill="#f6f6f6"/></g><g transform="translate(66 -2809)"><rect width="20" height="20" rx="10" transform="translate(204 2959)" fill="#f6f6f6"/></g><g transform="translate(-204 -2779)"><rect width="20" height="20" rx="10" transform="translate(204 2959)" fill="#f6f6f6"/></g><g transform="translate(-177 -2779)"><rect width="20" height="20" rx="10" transform="translate(204 2959)" fill="#f6f6f6"/></g><g transform="translate(-150 -2779)"><rect width="20" height="20" rx="10" transform="translate(204 2959)" fill="#f6f6f6"/></g><g transform="translate(-123 -2779)"><rect width="20" height="20" rx="10" transform="translate(204 2959)" fill="#f6f6f6"/></g><g transform="translate(-96 -2779)"><rect width="20" height="20" rx="10" transform="translate(204 2959)" fill="#f6f6f6"/></g><g transform="translate(-69 -2779)"><rect width="20" height="20" rx="10" transform="translate(204 2959)" fill="#f6f6f6"/></g><g transform="translate(-42 -2779)"><rect width="20" height="20" rx="10" transform="translate(204 2959)" fill="#f6f6f6"/></g><g transform="translate(-15 -2779)"><rect width="20" height="20" rx="10" transform="translate(204 2959)" fill="#f6f6f6"/></g><g transform="translate(12 -2779)"><rect width="20" height="20" rx="10" transform="translate(204 2959)" fill="#f6f6f6"/></g><g transform="translate(39 -2779)"><rect width="20" height="20" rx="10" transform="translate(204 2959)" fill="#f6f6f6"/></g><g transform="translate(66 -2779)"><rect width="20" height="20" rx="10" transform="translate(204 2959)" fill="#f6f6f6"/></g></g></svg>