<svg xmlns="http://www.w3.org/2000/svg" xmlns:xlink="http://www.w3.org/1999/xlink" width="266.611" height="65.053" viewBox="0 0 266.611 65.053"><defs><clipPath id="a"><rect width="266.611" height="65.053" fill="#fff"/></clipPath></defs><g clip-path="url(#a)"><path d="M8.991,98.037a3.75,3.75,0,0,1-2.277.747,3.231,3.231,0,0,1-3.278-3.341,3.295,3.295,0,0,1,3.318-3.4,3.614,3.614,0,0,1,2.229.757l-.494.771a2.855,2.855,0,0,0-1.659-.548,2.276,2.276,0,0,0-2.266,2.394A2.245,2.245,0,0,0,6.808,97.79a2.949,2.949,0,0,0,1.682-.543Z" transform="translate(-1.331 -35.667)" fill="#fff"/><path d="M15.8,100.014a2.238,2.238,0,0,1-2.37-2.369,2.266,2.266,0,0,1,2.3-2.423,2.144,2.144,0,0,1,2.17,2.314,3.359,3.359,0,0,1-.022.4H14.5a1.276,1.276,0,0,0,1.367,1.207,2.12,2.12,0,0,0,1.257-.429l.483.664a2.769,2.769,0,0,1-1.808.636M16.86,97.2a1.115,1.115,0,0,0-1.134-1.1,1.2,1.2,0,0,0-1.215,1.1Z" transform="translate(-5.201 -36.896)" fill="#fff"/><path d="M25.537,99.919v-2.74a.9.9,0,0,0-.952-1,1.062,1.062,0,0,0-1.09,1.164v2.583H22.42V95.314H23.3l.094.627a1.8,1.8,0,0,1,1.513-.72c1.118,0,1.7.768,1.7,1.9v2.8Z" transform="translate(-8.687 -36.895)" fill="#fff"/><path d="M30.625,94.353h.807V92.937l1.063-.2v1.614h1.126v.907H32.5V97.1c0,.814.379.958,1,1.082l-.128.869c-.954,0-1.938-.421-1.938-1.634V95.26h-.807Z" transform="translate(-11.867 -35.934)" fill="#fff"/><path d="M37.078,95.314h.88l.092.7h.008a1.248,1.248,0,0,1,1.25-.8,2.148,2.148,0,0,1,.607.087l-.167.986a1.662,1.662,0,0,0-.5-.076c-.91,0-1.111.78-1.111,1.686v2.015H37.078Z" transform="translate(-14.367 -36.895)" fill="#fff"/><path d="M42.335,97.629a2.389,2.389,0,1,1,2.376,2.394,2.31,2.31,0,0,1-2.376-2.394m3.695-.009a1.32,1.32,0,1,0-.609,1.262,1.319,1.319,0,0,0,.609-1.262" transform="translate(-16.403 -36.906)" fill="#fff"/><path d="M59.184,97.9a1.829,1.829,0,0,1-1.539.752,2.413,2.413,0,0,1,0-4.792,1.751,1.751,0,0,1,1.438.642V91.9l1.071-.2v6.852h-.879Zm-.069-1.659a1.276,1.276,0,1,0-1.247,1.474,1.309,1.309,0,0,0,1.247-1.474" transform="translate(-21.511 -35.534)" fill="#fff"/><path d="M67.24,100.014a2.239,2.239,0,0,1-2.37-2.369,2.266,2.266,0,0,1,2.306-2.423,2.144,2.144,0,0,1,2.173,2.314,3.6,3.6,0,0,1-.023.4H65.942a1.275,1.275,0,0,0,1.363,1.207,2.129,2.129,0,0,0,1.26-.429l.483.664a2.775,2.775,0,0,1-1.809.636M68.306,97.2a1.115,1.115,0,0,0-1.134-1.1,1.2,1.2,0,0,0-1.214,1.1Z" transform="translate(-25.133 -36.896)" fill="#fff"/><path d="M79.314,98.749h-1.1V92.2h4.15v.968H79.314V95.1h2.542v.96H79.314Z" transform="translate(-30.305 -35.726)" fill="#fff"/><path d="M85.667,97.629a2.389,2.389,0,1,1,2.38,2.394,2.312,2.312,0,0,1-2.38-2.394m3.7-.009a1.321,1.321,0,1,0-.609,1.262,1.319,1.319,0,0,0,.609-1.262" transform="translate(-33.194 -36.906)" fill="#fff"/><path d="M95.243,95.314h.876l.095.7h.01a1.245,1.245,0,0,1,1.247-.8,2.144,2.144,0,0,1,.607.087l-.166.986a1.654,1.654,0,0,0-.495-.076c-.909,0-1.111.78-1.111,1.686v2.015H95.243Z" transform="translate(-36.905 -36.895)" fill="#fff"/><path d="M101.149,99.918v-4.6h.88l.087.625a1.619,1.619,0,0,1,1.392-.718,1.515,1.515,0,0,1,1.379.764,1.759,1.759,0,0,1,1.531-.764c1.128,0,1.6.771,1.6,1.9v2.8H106.95v-2.74c0-.613-.25-1-.843-1-.674-.006-.992.5-.992,1.164v2.583h-1.063V97.179c0-.6-.249-1-.843-1-.661,0-.988.508-.988,1.164v2.583Z" transform="translate(-39.193 -36.895)" fill="#fff"/><path d="M118.214,100.01c-.582,0-1.107-.208-1.151-.685a1.715,1.715,0,0,1-1.474.687,1.47,1.47,0,0,1-1.641-1.421c0-.9.72-1.512,2-1.512a5.353,5.353,0,0,1,1.028.11v-.235c0-.619-.442-.853-1.049-.853a2.864,2.864,0,0,0-1.32.336l-.327-.718a3.228,3.228,0,0,1,1.83-.5c1.232,0,1.921.539,1.921,1.619v1.737c0,.362.071.536.311.666Zm-2.151-2.165c-.753,0-1.089.255-1.089.682,0,.459.385.638.777.638.562,0,1.225-.368,1.225-.93v-.291a4.782,4.782,0,0,0-.911-.1" transform="translate(-44.152 -36.895)" fill="#fff"/><path d="M126.553,99.449a2.774,2.774,0,0,1-1.673.563,2.276,2.276,0,0,1-2.381-2.369,2.312,2.312,0,0,1,2.4-2.423,2.7,2.7,0,0,1,1.6.5l-.449.749a1.992,1.992,0,0,0-1.06-.316,1.463,1.463,0,0,0-.011,2.924,1.937,1.937,0,0,0,1.068-.333Z" transform="translate(-47.464 -36.895)" fill="#fff"/><path d="M130.435,92.542a.668.668,0,1,1,.2.474.668.668,0,0,1-.2-.474m.133,1.476h1.071v4.6H130.57Z" transform="translate(-50.541 -35.6)" fill="#fff"/><path d="M134.172,96.354a2.389,2.389,0,1,1,2.38,2.394,2.312,2.312,0,0,1-2.38-2.394m3.7-.009a1.321,1.321,0,1,0-1.317,1.466,1.362,1.362,0,0,0,1.317-1.466m-1.055-4.391H138l-1.173,1.467h-.871Z" transform="translate(-51.988 -35.63)" fill="#fff"/><path d="M146.858,99.919v-2.74a.9.9,0,0,0-.953-1,1.061,1.061,0,0,0-1.089,1.164v2.583H143.74V95.314h.878l.092.627a1.809,1.809,0,0,1,1.514-.72c1.12,0,1.7.768,1.7,1.9v2.8Z" transform="translate(-55.696 -36.895)" fill="#fff"/><path d="M158.674,100.014a2.239,2.239,0,0,1-2.372-2.369,2.266,2.266,0,0,1,2.306-2.423,2.144,2.144,0,0,1,2.173,2.314,3.32,3.32,0,0,1-.023.4h-3.383a1.277,1.277,0,0,0,1.365,1.207A2.118,2.118,0,0,0,160,98.71l.484.664a2.775,2.775,0,0,1-1.808.636m1.066-2.807a1.117,1.117,0,0,0-1.135-1.1,1.2,1.2,0,0,0-1.216,1.1Z" transform="translate(-60.562 -36.896)" fill="#fff"/><path d="M168.418,99.919v-2.74a.9.9,0,0,0-.953-1,1.063,1.063,0,0,0-1.09,1.164v2.583H165.3V95.314h.876l.094.627a1.8,1.8,0,0,1,1.51-.72c1.122,0,1.7.768,1.7,1.9v2.8Z" transform="translate(-64.05 -36.895)" fill="#fff"/><path d="M179.7,98.749h-1.1V92.2h4.152v.968H179.7V95.1h2.544v.96H179.7Z" transform="translate(-69.204 -35.726)" fill="#fff"/><path d="M186.868,92.542a.667.667,0,1,1,.2.474.668.668,0,0,1-.2-.474M187,94.018h1.07v4.6H187Z" transform="translate(-72.407 -35.6)" fill="#fff"/><path d="M194.161,99.919v-2.74a.9.9,0,0,0-.953-1,1.06,1.06,0,0,0-1.089,1.164v2.583h-1.076V95.314h.879l.091.627a1.806,1.806,0,0,1,1.515-.72c1.118,0,1.7.768,1.7,1.9v2.8Z" transform="translate(-74.025 -36.895)" fill="#fff"/><path d="M203.716,100.01c-.583,0-1.108-.208-1.151-.685a1.715,1.715,0,0,1-1.474.687,1.47,1.47,0,0,1-1.643-1.421c0-.9.72-1.512,2-1.512a5.417,5.417,0,0,1,1.031.11v-.235c0-.619-.445-.853-1.052-.853a2.861,2.861,0,0,0-1.32.336l-.327-.718a3.234,3.234,0,0,1,1.83-.5c1.233,0,1.921.539,1.921,1.619v1.737c0,.362.072.536.311.666Zm-2.149-2.165c-.753,0-1.088.255-1.088.682,0,.459.385.638.775.638.564,0,1.225-.368,1.225-.93v-.291a4.833,4.833,0,0,0-.913-.1" transform="translate(-77.282 -36.895)" fill="#fff"/><path d="M211.551,99.919v-2.74a.9.9,0,0,0-.953-1,1.062,1.062,0,0,0-1.09,1.164v2.583h-1.073V95.314h.878l.092.627a1.8,1.8,0,0,1,1.512-.72c1.121,0,1.7.768,1.7,1.9v2.8Z" transform="translate(-80.764 -36.895)" fill="#fff"/><path d="M220.87,99.979h-3.94v-.8l2.47-2.916h-2.349v-.893h3.8v.762l-2.506,2.94h2.524Z" transform="translate(-84.056 -36.955)" fill="#fff"/><path d="M228.894,100.01c-.584,0-1.109-.208-1.152-.685a1.715,1.715,0,0,1-1.47.687,1.47,1.47,0,0,1-1.642-1.421c0-.9.721-1.512,2-1.512a5.39,5.39,0,0,1,1.029.11v-.235c0-.619-.443-.853-1.052-.853a2.871,2.871,0,0,0-1.32.336l-.322-.718a3.215,3.215,0,0,1,1.827-.5c1.231,0,1.921.539,1.921,1.619v1.737c0,.362.07.536.311.666Zm-2.151-2.165c-.754,0-1.089.255-1.089.682,0,.459.385.638.78.638.56,0,1.225-.368,1.225-.93v-.291a4.821,4.821,0,0,0-.913-.1" transform="translate(-87.039 -36.895)" fill="#fff"/><path d="M234.791,99.141c.415,0,.821-.13.821-.512,0-.912-2.407-.282-2.407-1.989,0-.971.778-1.418,1.715-1.418a2.6,2.6,0,0,1,1.607.53l-.4.668a2.253,2.253,0,0,0-1.14-.349c-.38,0-.735.148-.735.5,0,.9,2.424.322,2.424,2.018,0,.98-.807,1.43-1.827,1.43a2.75,2.75,0,0,1-1.811-.679l.479-.644a2.179,2.179,0,0,0,1.273.45" transform="translate(-90.297 -36.896)" fill="#fff"/><path d="M240.683,102.4c0-.372-.387-.5-.387-.927a.674.674,0,0,1,.684-.682c.48,0,.716.429.716.919a2.144,2.144,0,0,1-1.47,1.91l-.2-.49c.281-.15.655-.36.655-.727" transform="translate(-93.005 -39.056)" fill="#fff"/><path d="M251.815,97.1h-2.586l-.564,1.645h-1.142L249.9,92.2h1.276l2.412,6.549h-1.2Zm-.314-.929-.985-2.818-.976,2.818Z" transform="translate(-95.91 -35.726)" fill="#fff"/><path d="M261.855,97.9a1.827,1.827,0,0,1-1.539.752,2.413,2.413,0,0,1,0-4.792,1.751,1.751,0,0,1,1.438.642V91.9l1.07-.2v6.852h-.878Zm-.066-1.659a1.278,1.278,0,1,0-1.247,1.474,1.31,1.31,0,0,0,1.247-1.474" transform="translate(-100.043 -35.534)" fill="#fff"/><path d="M267.973,99.918v-4.6h.879l.088.625a1.616,1.616,0,0,1,1.385-.718,1.522,1.522,0,0,1,1.383.764,1.752,1.752,0,0,1,1.531-.764c1.128,0,1.6.771,1.6,1.9v2.8h-1.073v-2.74c0-.613-.249-1-.842-1-.674-.006-.99.5-.99,1.164v2.583h-1.063V97.179c0-.6-.249-1-.842-1-.66,0-.989.508-.989,1.164v2.583Z" transform="translate(-103.834 -36.895)" fill="#fff"/><path d="M281.109,92.542a.668.668,0,1,1,.2.474.668.668,0,0,1-.2-.474m.133,1.476h1.069v4.6h-1.069Z" transform="translate(-108.924 -35.6)" fill="#fff"/><path d="M288.4,99.919v-2.74a.9.9,0,0,0-.95-1,1.061,1.061,0,0,0-1.091,1.164v2.583h-1.074V95.314h.879l.091.627a1.8,1.8,0,0,1,1.515-.72c1.117,0,1.7.768,1.7,1.9v2.8Z" transform="translate(-110.543 -36.895)" fill="#fff"/><path d="M294.033,92.541a.669.669,0,1,1,.2.475.669.669,0,0,1-.2-.475m.135,1.476h1.066v4.6h-1.066Z" transform="translate(-113.932 -35.599)" fill="#fff"/><path d="M299.4,99.141c.412,0,.821-.13.821-.512,0-.912-2.408-.282-2.408-1.989,0-.971.779-1.418,1.715-1.418a2.6,2.6,0,0,1,1.607.53l-.4.668a2.247,2.247,0,0,0-1.138-.349c-.383,0-.739.148-.739.5,0,.9,2.427.322,2.427,2.018,0,.98-.806,1.43-1.827,1.43a2.753,2.753,0,0,1-1.812-.68l.48-.644a2.17,2.17,0,0,0,1.273.45" transform="translate(-115.331 -36.896)" fill="#fff"/><path d="M304.556,94.353h.809V92.937l1.064-.2v1.614h1.125v.907h-1.125V97.1c0,.814.377.958,1,1.082l-.129.869c-.954,0-1.936-.421-1.936-1.634V95.26h-.809Z" transform="translate(-118.009 -35.934)" fill="#fff"/><path d="M311.009,95.314h.88l.092.7h.009a1.246,1.246,0,0,1,1.25-.8,2.145,2.145,0,0,1,.606.087l-.167.986a1.654,1.654,0,0,0-.5-.076c-.91,0-1.109.78-1.109,1.686v2.015h-1.067Z" transform="translate(-120.51 -36.895)" fill="#fff"/><path d="M320.548,100.01c-.583,0-1.107-.208-1.15-.685a1.718,1.718,0,0,1-1.475.687,1.47,1.47,0,0,1-1.643-1.421c0-.9.72-1.512,2-1.512a5.384,5.384,0,0,1,1.03.11v-.235c0-.619-.445-.853-1.05-.853a2.855,2.855,0,0,0-1.32.336l-.325-.718a3.226,3.226,0,0,1,1.828-.5c1.232,0,1.923.539,1.923,1.619v1.737c0,.362.069.536.309.666ZM318.4,97.845c-.75,0-1.088.255-1.088.682,0,.459.385.638.779.638.562,0,1.225-.368,1.225-.93v-.291a4.789,4.789,0,0,0-.914-.1" transform="translate(-122.552 -36.895)" fill="#fff"/><path d="M328.887,99.449a2.782,2.782,0,0,1-1.673.563,2.277,2.277,0,0,1-2.383-2.369,2.312,2.312,0,0,1,2.395-2.423,2.7,2.7,0,0,1,1.6.5l-.449.749a2,2,0,0,0-1.06-.316,1.463,1.463,0,0,0-.012,2.924,1.947,1.947,0,0,0,1.069-.333Z" transform="translate(-125.864 -36.895)" fill="#fff"/><path d="M332.77,92.541a.668.668,0,1,1,.2.474.669.669,0,0,1-.2-.474m.132,1.476h1.067v4.6H332.9Z" transform="translate(-128.941 -35.599)" fill="#fff"/><path d="M336.509,96.354a2.389,2.389,0,1,1,2.377,2.394,2.311,2.311,0,0,1-2.377-2.394m3.7-.009a1.321,1.321,0,1,0-1.319,1.466,1.361,1.361,0,0,0,1.319-1.466m-1.054-4.391h1.188l-1.173,1.467h-.874Z" transform="translate(-130.39 -35.63)" fill="#fff"/><path d="M349.194,99.919v-2.74a.9.9,0,0,0-.953-1,1.063,1.063,0,0,0-1.092,1.164v2.583h-1.073V95.314h.879l.091.627a1.809,1.809,0,0,1,1.515-.72c1.12,0,1.7.768,1.7,1.9v2.8Z" transform="translate(-134.097 -36.895)" fill="#fff"/><path d="M361.635,95.374h1.09l-2.233,5.5a1.611,1.611,0,0,1-1.536,1.136,2.191,2.191,0,0,1-.764-.149l.139-.854a1.569,1.569,0,0,0,.4.056.919.919,0,0,0,.913-.7l.13-.332-1.829-4.65h1.164l1.222,3.4Z" transform="translate(-138.699 -36.955)" fill="#fff"/><path d="M372.138,98.749h-1.061V92.2h1.2l3.042,4.839L375.3,92.2h1.054v6.549h-1.212l-3.02-4.8Z" transform="translate(-143.785 -35.726)" fill="#fff"/><path d="M383.975,100.014a2.239,2.239,0,0,1-2.372-2.369,2.266,2.266,0,0,1,2.306-2.423,2.144,2.144,0,0,1,2.173,2.314,3.352,3.352,0,0,1-.022.4h-3.383a1.278,1.278,0,0,0,1.365,1.207,2.113,2.113,0,0,0,1.257-.429l.483.664a2.77,2.77,0,0,1-1.808.636M385.04,97.2a1.113,1.113,0,0,0-1.132-1.1,1.2,1.2,0,0,0-1.214,1.1Z" transform="translate(-147.861 -36.896)" fill="#fff"/><path d="M394.815,99.689a2.156,2.156,0,0,1-2.377,2.26,2.907,2.907,0,0,1-1.949-.7l.5-.678a2.3,2.3,0,0,0,1.363.449,1.3,1.3,0,0,0,1.4-1.477v-.331a1.806,1.806,0,0,1-1.47.654,2.1,2.1,0,0,1-2.083-2.3,2.162,2.162,0,0,1,2.139-2.344,1.747,1.747,0,0,1,1.505.735l.088-.641h.892Zm-1.049-2.144a1.251,1.251,0,0,0-1.243-1.387,1.272,1.272,0,0,0-1.261,1.4,1.258,1.258,0,1,0,2.5-.015" transform="translate(-151.19 -36.895)" fill="#fff"/><path d="M399.511,97.629a2.389,2.389,0,1,1,2.378,2.394,2.312,2.312,0,0,1-2.378-2.394m3.7-.009a1.32,1.32,0,1,0-1.319,1.467,1.362,1.362,0,0,0,1.319-1.467" transform="translate(-154.802 -36.906)" fill="#fff"/><path d="M412.7,99.449a2.776,2.776,0,0,1-1.672.563,2.277,2.277,0,0,1-2.383-2.369,2.312,2.312,0,0,1,2.4-2.423,2.7,2.7,0,0,1,1.6.5l-.45.749a1.988,1.988,0,0,0-1.06-.316,1.463,1.463,0,0,0-.011,2.924,1.946,1.946,0,0,0,1.068-.333Z" transform="translate(-158.342 -36.895)" fill="#fff"/><path d="M416.586,92.543a.668.668,0,1,1,.669.669.668.668,0,0,1-.669-.669m.134,1.476h1.067v4.6h-1.069Z" transform="translate(-161.418 -35.6)" fill="#fff"/><path d="M420.325,97.629a2.389,2.389,0,1,1,2.379,2.394,2.312,2.312,0,0,1-2.379-2.394m3.7-.009a1.321,1.321,0,1,0-1.317,1.467,1.361,1.361,0,0,0,1.317-1.467" transform="translate(-162.867 -36.906)" fill="#fff"/><path d="M431.085,99.141c.412,0,.821-.13.821-.512,0-.912-2.408-.282-2.408-1.989,0-.971.777-1.418,1.715-1.418a2.593,2.593,0,0,1,1.606.53l-.4.668a2.239,2.239,0,0,0-1.138-.349c-.381,0-.735.148-.735.5,0,.9,2.425.322,2.425,2.018,0,.98-.8,1.43-1.827,1.43a2.749,2.749,0,0,1-1.81-.679l.478-.644a2.172,2.172,0,0,0,1.275.45" transform="translate(-166.358 -36.896)" fill="#fff"/><path d="M95.081,1.835h29.852V12.37H106.6v8.71h16.506V31.474H106.6v8.989h19.1V51H95.079Z" transform="translate(-36.841 -0.711)" fill="#fff"/><path d="M160.448,1.835h29.707V12.511H171.963v9.761h16.364v10.4H171.966V51H160.45Z" transform="translate(-62.17 -0.711)" fill="#fff"/><path d="M223.283,1.835H252.99V12.511H234.8v9.761h16.367v10.4H234.8V51H223.285Z" transform="translate(-86.518 -0.711)" fill="#fff"/><path d="M292.037,1.835h11.449L322.661,51H310.227l-3.442-8.851H288.592L285.15,51H272.93Zm11.449,30.342-5.758-15.592L291.9,32.177Z" transform="translate(-105.755 -0.711)" fill="#fff"/><path d="M364.1,1.835h10.394l20.3,28.8V1.835h11.379V51H395.772L375.474,22.2V51H364.1Z" transform="translate(-141.079 -0.711)" fill="#fff"/><path d="M0,25.8C0,10.854,10.732,0,25.224,0c12.962,0,22.159,8.105,24.25,20.087H38.114c-2.021-5.85-6.615-9.372-12.819-9.372-7.8,0-13.588,5.849-13.588,15.081,0,9.163,5.852,15.083,13.588,15.083,6.828,0,11.148-3.807,12.891-10.079H49.614a26.313,26.313,0,0,1-5.439,12.456c-4.1,5.131-10.634,8.334-18.6,8.334C10.522,51.591,0,40.949,0,25.8" fill="#fff"/><path d="M13.1,32.634A17.856,17.856,0,0,1,11.819,25.8c0-9.233,5.783-15.082,13.588-15.082,6.2,0,10.8,3.524,12.822,9.372H49.586C47.495,8.105,38.3,0,25.337,0,10.844,0,.112,10.855.112,25.8a28.747,28.747,0,0,0,1.7,9.918Z" transform="translate(-0.043)" fill="#fff"/><path d="M45.222,35.566A10.237,10.237,0,1,1,34.985,25.214,10.237,10.237,0,0,1,45.222,35.566" transform="translate(-9.589 -9.77)" fill="#fff"/></g></svg>